<?xml version="1.0" encoding="utf-8"?>
<!-- Generator: Adobe Illustrator 21.1.0, SVG Export Plug-In . SVG Version: 6.00 Build 0)  -->
<svg version="1.1" id="Layer_1" xmlns="http://www.w3.org/2000/svg" xmlns:xlink="http://www.w3.org/1999/xlink" x="0px" y="0px"
	 viewBox="0 0 17 23" style="enable-background:new 0 0 17 23;" xml:space="preserve">
<style type="text/css">
	.st0{fill:url(#Fill-222_1_);}
	.st1{fill:none;}
</style>
<title>LOCALIZACAO</title>
<desc>Created with Sketch.</desc>
<g id="ASSETS">
	<g id="LOCALIZACAO" transform="translate(-2.000000, 0.000000)">
		
			<linearGradient id="Fill-222_1_" gradientUnits="userSpaceOnUse" x1="-363.9955" y1="394.9785" x2="-363.9955" y2="393.9785" gradientTransform="matrix(15.9562 0 0 -22.7946 5818.856 9003.3936)">
			<stop  offset="0" style="stop-color:#17A635"/>
			<stop  offset="1" style="stop-color:#60A637"/>
		</linearGradient>
		<path id="Fill-222" class="st0" d="M10.9,0c-4.4,0-8,3.6-8,8c0,6,8,14.8,8,14.8s8-8.8,8-14.8C18.8,3.6,15.3,0,10.9,0L10.9,0z
			 M10.9,10.8C9.3,10.8,8,9.6,8,8s1.3-2.8,2.8-2.8s2.8,1.3,2.8,2.8S12.4,10.8,10.9,10.8L10.9,10.8z"/>
		<polygon id="Shape" class="st1" points="0,0 23,0 23,23 0,23 		"/>
	</g>
</g>
</svg>
